<svg width="19" height="18" viewBox="0 0 19 18" fill="none" xmlns="http://www.w3.org/2000/svg">
<path d="M18.2393 2.47742C17.7314 3.37195 17.1083 4.1345 16.37 4.76506C16.3773 4.93417 16.3809 5.12531 16.3809 5.33848C16.3809 6.52289 16.2351 7.70873 15.9434 8.89601C15.6517 10.0833 15.2062 11.2197 14.6067 12.3053C14.0073 13.3909 13.2933 14.3527 12.4647 15.1906C11.6361 16.0285 10.6401 16.6966 9.47667 17.1948C8.31323 17.6931 7.06634 17.9423 5.736 17.9423C3.65977 17.9423 1.74777 17.2786 0 15.9513C0.310209 15.9922 0.607725 16.0126 0.892549 16.0126C2.62707 16.0126 4.17627 15.38 5.54016 14.1149C4.73143 14.0973 4.00715 13.8025 3.36732 13.2305C2.72749 12.6586 2.28718 11.9277 2.04638 11.0379C2.2844 11.0916 2.51931 11.1184 2.75112 11.1184C3.0848 11.1184 3.41313 11.0669 3.73612 10.9638C2.87306 10.7592 2.15707 10.2502 1.58816 9.43691C1.01928 8.62363 0.734832 7.68496 0.734832 6.62088V6.56604C1.26459 6.91334 1.82965 7.09808 2.43003 7.12025C1.91875 6.71667 1.51339 6.19039 1.21394 5.54141C0.914467 4.89243 0.764731 4.19012 0.764731 3.43448C0.764731 2.63754 0.933392 1.89543 1.27071 1.20816C2.20928 2.5719 3.34655 3.66185 4.68253 4.478C6.01852 5.29416 7.45179 5.74744 8.98233 5.83782C8.91705 5.5157 8.88435 5.17955 8.88423 4.82937C8.88423 3.60668 9.24966 2.56268 9.98053 1.69737C10.7114 0.832067 11.5932 0.399414 12.6258 0.399414C13.7069 0.399414 14.6176 0.865533 15.3578 1.79777C16.2035 1.59943 16.9953 1.24069 17.7333 0.721536C17.449 1.78101 16.9011 2.59832 16.0897 3.17346C16.8354 3.06853 17.552 2.83652 18.2393 2.47742H18.2393Z" fill="#1BB275"/>
</svg>
