<svg width="41" height="41" viewBox="0 0 41 41" fill="none" xmlns="http://www.w3.org/2000/svg">
<circle cx="20.0537" cy="20.0537" r="19.5537" stroke="white"/>
<path d="M24.7937 15.9411C25.4129 15.9411 25.9148 15.4391 25.9148 14.8199C25.9148 14.2007 25.4129 13.6987 24.7937 13.6987C24.1745 13.6987 23.6725 14.2007 23.6725 14.8199C23.6725 15.4391 24.1745 15.9411 24.7937 15.9411Z" fill="white"/>
<path d="M19.8062 15.0068C18.8574 15.0068 17.9298 15.2882 17.1408 15.8154C16.3518 16.3426 15.7369 17.0919 15.3738 17.9685C15.0106 18.8452 14.9156 19.8099 15.1007 20.7405C15.2859 21.6712 15.7428 22.5261 16.4138 23.197C17.0847 23.868 17.9396 24.3249 18.8703 24.51C19.8009 24.6952 20.7656 24.6002 21.6422 24.237C22.5189 23.8739 23.2682 23.259 23.7954 22.47C24.3226 21.681 24.6039 20.7534 24.6039 19.8045C24.6039 18.5321 24.0985 17.3118 23.1987 16.412C22.299 15.5123 21.0787 15.0068 19.8062 15.0068ZM19.8062 22.9189C19.1903 22.9189 18.5881 22.7363 18.076 22.394C17.5638 22.0518 17.1647 21.5654 16.9289 20.9964C16.6932 20.4273 16.6315 19.8011 16.7517 19.197C16.8719 18.5928 17.1685 18.0379 17.604 17.6023C18.0396 17.1668 18.5945 16.8702 19.1987 16.75C19.8028 16.6298 20.429 16.6915 20.9981 16.9272C21.5671 17.1629 22.0535 17.5621 22.3958 18.0743C22.738 18.5864 22.9206 19.1886 22.9206 19.8045C22.9206 20.6305 22.5925 21.4227 22.0084 22.0067C21.4244 22.5908 20.6322 22.9189 19.8062 22.9189Z" fill="white"/>
<path d="M19.806 12.1462C22.3006 12.1462 22.5965 12.1556 23.5814 12.2007C24.1738 12.2077 24.7606 12.3165 25.3161 12.5223C25.7192 12.6778 26.0852 12.9159 26.3907 13.2214C26.6961 13.5268 26.9343 13.8929 27.0897 14.2959C27.2955 14.8515 27.4043 15.4382 27.4113 16.0306C27.4565 17.0155 27.4658 17.3114 27.4658 19.8068C27.4658 22.3022 27.4565 22.5965 27.4113 23.5814C27.4043 24.1738 27.2955 24.7606 27.0897 25.3161C26.9343 25.7192 26.6961 26.0852 26.3907 26.3907C26.0852 26.6962 25.7192 26.9343 25.3161 27.0898C24.7606 27.2955 24.1738 27.4043 23.5814 27.4113C22.5965 27.4565 22.3006 27.4658 19.806 27.4658C17.3114 27.4658 17.0155 27.4565 16.0306 27.4113C15.4382 27.4043 14.8514 27.2955 14.2959 27.0898C13.8928 26.9343 13.5268 26.6962 13.2213 26.3907C12.9159 26.0852 12.6777 25.7192 12.5222 25.3161C12.3165 24.7606 12.2077 24.1738 12.2007 23.5814C12.1555 22.5965 12.1462 22.3006 12.1462 19.806C12.1462 17.3114 12.1555 17.0155 12.2007 16.0306C12.2077 15.4382 12.3165 14.8515 12.5222 14.2959C12.6777 13.8929 12.9159 13.5268 13.2213 13.2214C13.5268 12.9159 13.8928 12.6778 14.2959 12.5223C14.8514 12.3165 15.4382 12.2077 16.0306 12.2007C17.0155 12.1556 17.3114 12.1462 19.806 12.1462ZM19.806 10.4629C17.2686 10.4629 16.9501 10.4738 15.9535 10.5189C15.1786 10.5346 14.412 10.6815 13.6862 10.9534C13.0655 11.1934 12.5017 11.5605 12.0311 12.0311C11.5605 12.5018 11.1934 13.0655 10.9534 13.6863C10.6814 14.4123 10.5345 15.1792 10.5189 15.9543C10.4738 16.9509 10.4629 17.2678 10.4629 19.806C10.4629 22.3442 10.4738 22.6619 10.5189 23.6585C10.5346 24.4334 10.6815 25.2 10.9534 25.9258C11.1934 26.5465 11.5605 27.1103 12.0311 27.5809C12.5017 28.0515 13.0655 28.4186 13.6862 28.6586C14.4123 28.9306 15.1791 29.0775 15.9543 29.0931C16.9509 29.1383 17.2686 29.1492 19.806 29.1492C22.3434 29.1492 22.6619 29.1383 23.6585 29.0931C24.4336 29.0775 25.2005 28.9306 25.9265 28.6586C26.5473 28.4186 27.111 28.0515 27.5816 27.5809C28.0523 27.1103 28.4194 26.5465 28.6594 25.9258C28.9311 25.1997 29.0778 24.4328 29.0931 23.6577C29.1382 22.6611 29.1491 22.3442 29.1491 19.806C29.1491 17.2678 29.1382 16.9501 29.0931 15.9535C29.0774 15.1787 28.9305 14.412 28.6586 13.6863C28.4186 13.0655 28.0515 12.5018 27.5809 12.0311C27.1103 11.5605 26.5465 11.1934 25.9257 10.9534C25.1997 10.6817 24.4328 10.535 23.6577 10.5197C22.6611 10.473 22.3442 10.4629 19.806 10.4629Z" fill="white"/>
</svg>
