<svg width="160" height="160" viewBox="0 0 160 160" fill="none" xmlns="http://www.w3.org/2000/svg">
<g filter="url(#filter0_d_1_222)">
<rect x="30" y="18" width="100" height="100" rx="10" fill="#102C5B"/>
</g>
<path d="M59.7473 41.852L54 47.5866L54.0254 69.9162L54.0634 92.2458L54.3426 92.766C54.7359 93.5145 55.5225 94.1616 56.2964 94.3899C56.7658 94.5295 57.5017 94.5929 58.7197 94.5929H60.4705V96.3438C60.4705 97.5618 60.5339 98.2976 60.6735 98.767C60.9019 99.541 61.5489 100.328 62.2975 100.721L62.8176 101H83.2568H103.696L104.305 100.619C105.13 100.112 105.713 99.3253 105.878 98.5006C105.98 98.0185 106.018 90.1143 105.992 71.4387L105.954 45.0492L105.612 44.4021C104.851 42.9558 103.937 42.5752 101.235 42.5752H99.4204V40.5706C99.4204 38.6675 99.4077 38.5279 99.0905 37.9063C98.9129 37.5383 98.5577 37.0816 98.3039 36.8659C97.327 36.0666 98.2532 36.1047 81.1 36.1047H65.482L59.7473 41.852ZM97.0225 38.6294C97.2635 38.9212 97.2635 39.5175 97.2635 65.3361C97.2635 91.7002 97.2635 91.751 97.0098 92.0301C96.8702 92.1824 96.6165 92.3346 96.4643 92.3727C96.312 92.4107 87.3167 92.4234 76.4818 92.4107L56.7658 92.3727L56.4613 92.0174L56.1568 91.6622V70.3476V49.0457H60.2294C62.9953 49.0457 64.467 48.9949 64.8095 48.8934C65.4566 48.7031 66.3447 47.9165 66.6746 47.2314C66.9283 46.7112 66.941 46.4828 66.941 42.4737V38.2615L81.8612 38.2869L96.7814 38.3249L97.0225 38.6294ZM64.7842 43.0827V46.2672L64.467 46.5717L64.1625 46.8888H60.9526H57.7427L61.2317 43.3998C63.1475 41.4841 64.7334 39.9108 64.7461 39.9108C64.7715 39.9108 64.7842 41.3445 64.7842 43.0827ZM103.214 44.9223C103.417 45.0238 103.645 45.2776 103.721 45.5059C103.823 45.7977 103.861 53.1944 103.861 71.8447C103.861 99.6805 103.886 98.4245 103.252 98.767C103.062 98.8685 97.1367 98.9066 83.1934 98.9066H63.4013L63.046 98.6021C62.6908 98.2976 62.6908 98.2976 62.6527 96.4453L62.6146 94.5929H79.5902C90.755 94.5929 96.7307 94.5422 97.0352 94.4661C97.8599 94.2377 98.6845 93.578 99.0651 92.8294L99.4204 92.157V68.5333C99.4204 55.5289 99.4584 44.8589 99.5092 44.8208C99.5473 44.7701 100.321 44.732 101.222 44.732C102.415 44.732 102.96 44.7828 103.214 44.9223Z" fill="white"/>
<path d="M60.9272 54.7804C60.7369 54.9453 60.5593 55.2498 60.5212 55.4782C60.4578 55.8207 60.5085 55.9476 60.8257 56.2775L61.2063 56.6581H76.7736H92.3282L92.6327 56.3409C93.1655 55.8207 93.026 55.0087 92.3535 54.6535C92.1505 54.5393 88.1414 54.5012 76.6594 54.5012H61.2444L60.9272 54.7804Z" fill="white"/>
<path d="M60.7877 60.3628C60.3944 60.8195 60.4197 61.3651 60.8638 61.7964C61.1048 62.0502 61.2952 62.0502 71.1658 62.0756C79.0446 62.1009 81.2776 62.0756 81.5313 61.9487C82.2164 61.6061 82.3306 60.7561 81.7851 60.2105C81.5313 59.9568 81.3156 59.9568 71.3308 59.9568H61.1302L60.7877 60.3628Z" fill="white"/>
<path d="M85.7943 60.2232C85.5532 60.4136 85.4644 60.6039 85.4644 60.9084C85.4644 62.0502 85.6801 62.1136 89.2579 62.1136H92.1633L92.5566 61.7838C93.0641 61.3651 93.1021 60.7307 92.6327 60.274L92.3282 59.9568H89.2325C86.2891 59.9568 86.1115 59.9695 85.7943 60.2232Z" fill="white"/>
<path d="M61.1556 65.463C60.6228 65.704 60.3817 66.2877 60.5974 66.8078C60.6862 67.0235 60.8638 67.2519 60.9907 67.3153C61.1176 67.3915 62.5766 67.4422 64.3401 67.4422H67.4612L67.7657 67.125C68.1717 66.7317 68.1717 66.1735 67.7784 65.704L67.4739 65.3488L64.5051 65.3234C62.2214 65.2981 61.4601 65.3234 61.1556 65.463Z" fill="white"/>
<path d="M72.1428 65.3742C71.3815 65.6533 71.1151 66.6429 71.6733 67.1631L71.9651 67.4422H82.1911H92.4297L92.6834 67.1123C93.0387 66.6683 93.0133 66.1354 92.6454 65.704L92.3409 65.3488L82.3306 65.3234C76.837 65.3107 72.2442 65.3361 72.1428 65.3742Z" fill="white"/>
<path d="M60.9272 71.0201C60.7369 71.185 60.5593 71.4895 60.5212 71.7179C60.4578 72.0604 60.5085 72.1873 60.8257 72.5171L61.2063 72.8978H63.2363H65.2662L65.5961 72.5045C66.0275 71.997 66.0148 71.5656 65.5581 71.1089L65.1901 70.7409H63.2109C61.3586 70.7409 61.2317 70.7536 60.9272 71.0201Z" fill="white"/>
<path d="M69.5419 71.0581C69.0852 71.5022 69.0979 72.2761 69.5546 72.6313C69.8845 72.8978 69.9986 72.8978 76.761 72.8978C84.0054 72.8851 83.8531 72.8978 84.1703 72.3015C84.4114 71.8574 84.3479 71.5022 83.9546 71.1089L83.5867 70.7409H76.7102H69.8464L69.5419 71.0581Z" fill="white"/>
<path d="M88.1668 70.8678C87.5578 71.1089 87.4309 72.0731 87.9384 72.5806C88.2429 72.8851 88.281 72.8978 90.2856 72.8978C92.2902 72.8978 92.3282 72.8851 92.6327 72.5806C93.1656 72.0604 93.026 71.2484 92.3536 70.8932C92.0237 70.7156 88.5982 70.7029 88.1668 70.8678Z" fill="white"/>
<path d="M60.7877 76.6025C60.3944 77.0592 60.4197 77.6048 60.8638 78.0362C61.1048 78.2899 61.2952 78.2899 76.634 78.328L92.1632 78.3533L92.5565 78.0235C93.064 77.6048 93.1021 76.9704 92.6327 76.5137L92.3282 76.1965H76.7229H61.1302L60.7877 76.6025Z" fill="white"/>
<path d="M61.1556 81.7027C60.6228 81.931 60.3817 82.5273 60.5974 83.0475C60.6862 83.2632 60.8638 83.4916 60.9907 83.555C61.1176 83.6311 62.7796 83.6819 64.8857 83.6819H68.5523L68.8187 83.3901C69.1359 83.0602 69.1867 82.3497 68.9202 82.0072C68.603 81.5885 68.1082 81.5251 64.8096 81.5251C62.3736 81.5377 61.4474 81.5758 61.1556 81.7027Z" fill="white"/>
<path d="M73.0689 81.7154C72.5614 81.931 72.3458 82.3243 72.4473 82.8699C72.5741 83.4916 72.9294 83.6819 74.0205 83.6819C75.0989 83.6819 75.3526 83.5804 75.5683 83.0475C75.784 82.5147 75.5429 81.931 74.9847 81.7027C74.4518 81.4743 73.5891 81.487 73.0689 81.7154Z" fill="white"/>
<defs>
<filter id="filter0_d_1_222" x="0" y="0" width="160" height="160" filterUnits="userSpaceOnUse" color-interpolation-filters="sRGB">
<feFlood flood-opacity="0" result="BackgroundImageFix"/>
<feColorMatrix in="SourceAlpha" type="matrix" values="0 0 0 0 0 0 0 0 0 0 0 0 0 0 0 0 0 0 127 0" result="hardAlpha"/>
<feOffset dy="12"/>
<feGaussianBlur stdDeviation="15"/>
<feComposite in2="hardAlpha" operator="out"/>
<feColorMatrix type="matrix" values="0 0 0 0 0 0 0 0 0 0 0 0 0 0 0 0 0 0 0.1 0"/>
<feBlend mode="normal" in2="BackgroundImageFix" result="effect1_dropShadow_1_222"/>
<feBlend mode="normal" in="SourceGraphic" in2="effect1_dropShadow_1_222" result="shape"/>
</filter>
</defs>
</svg>
