<svg width="41" height="41" viewBox="0 0 41 41" fill="none" xmlns="http://www.w3.org/2000/svg">
<circle cx="20.0537" cy="20.0537" r="19.5537" stroke="white"/>
<path d="M30.2562 13.9634C29.6921 14.8085 29.0001 15.5289 28.1801 16.1246C28.1882 16.2844 28.1922 16.4649 28.1922 16.6663C28.1922 17.7853 28.0303 18.9056 27.7063 20.0272C27.3824 21.1489 26.8876 22.2225 26.2219 23.2481C25.5562 24.2737 24.7632 25.1823 23.843 25.9739C22.9228 26.7655 21.8166 27.3966 20.5246 27.8674C19.2325 28.3381 17.8477 28.5735 16.3703 28.5735C14.0645 28.5735 11.941 27.9465 10 26.6925C10.3445 26.7312 10.6749 26.7505 10.9912 26.7505C12.9176 26.7505 14.6381 26.1528 16.1528 24.9576C15.2546 24.941 14.4502 24.6626 13.7397 24.1222C13.0291 23.5818 12.5401 22.8913 12.2727 22.0507C12.537 22.1014 12.7979 22.1268 13.0553 22.1268C13.4259 22.1268 13.7905 22.0781 14.1492 21.9808C13.1907 21.7874 12.3956 21.3066 11.7638 20.5382C11.132 19.7699 10.8161 18.8831 10.8161 17.8778V17.826C11.4044 18.1541 12.032 18.3287 12.6987 18.3496C12.1309 17.9683 11.6807 17.4711 11.3482 16.858C11.0156 16.2449 10.8493 15.5814 10.8493 14.8676C10.8493 14.1147 11.0366 13.4136 11.4112 12.7643C12.4536 14.0527 13.7166 15.0824 15.2003 15.8534C16.684 16.6245 18.2758 17.0527 19.9756 17.1381C19.9031 16.8337 19.8667 16.5162 19.8666 16.1853C19.8666 15.0302 20.2725 14.0439 21.0841 13.2265C21.8958 12.409 22.8751 12.0002 24.0219 12.0002C25.2226 12.0002 26.234 12.4406 27.056 13.3213C27.9952 13.1339 28.8746 12.795 29.6941 12.3046C29.3784 13.3055 28.7699 14.0776 27.8688 14.621C28.697 14.5218 29.4928 14.3026 30.2561 13.9634H30.2562Z" fill="white"/>
</svg>
