<svg width="17" height="20" viewBox="0 0 17 20" fill="none" xmlns="http://www.w3.org/2000/svg">
<path d="M12.9043 5.79859C13.4618 5.79859 13.9138 5.26725 13.9138 4.61182C13.9138 3.95638 13.4618 3.42505 12.9043 3.42505C12.3467 3.42505 11.8947 3.95638 11.8947 4.61182C11.8947 5.26725 12.3467 5.79859 12.9043 5.79859Z" fill="#1BB275"/>
<path d="M8.41352 4.81006C7.5591 4.81006 6.72387 5.1079 6.01345 5.66592C5.30303 6.22394 4.74932 7.01708 4.42235 7.94503C4.09538 8.87299 4.00983 9.89408 4.17652 10.8792C4.3432 11.8643 4.75465 12.7692 5.35881 13.4794C5.96297 14.1896 6.73273 14.6733 7.57073 14.8693C8.40873 15.0652 9.27734 14.9646 10.0667 14.5803C10.8561 14.1959 11.5308 13.545 12.0055 12.7099C12.4802 11.8747 12.7335 10.8929 12.7335 9.88845C12.7335 8.54158 12.2784 7.24987 11.4682 6.29748C10.6581 5.3451 9.55926 4.81006 8.41352 4.81006ZM8.41352 13.185C7.85888 13.185 7.3167 12.9917 6.85554 12.6295C6.39437 12.2672 6.03494 11.7524 5.82269 11.15C5.61044 10.5476 5.55491 9.88479 5.66311 9.24532C5.77131 8.60584 6.0384 8.01845 6.43059 7.55741C6.82277 7.09637 7.32245 6.78241 7.86643 6.65521C8.41041 6.52801 8.97426 6.59329 9.48667 6.8428C9.99909 7.09231 10.4371 7.51484 10.7452 8.05696C11.0533 8.59908 11.2178 9.23645 11.2178 9.88845C11.2178 10.7628 10.9224 11.6013 10.3965 12.2195C9.87054 12.8377 9.15726 13.185 8.41352 13.185Z" fill="#1BB275"/>
<path d="M8.41287 1.7818C10.6591 1.7818 10.9255 1.79169 11.8124 1.83949C12.3458 1.84694 12.8741 1.96207 13.3744 2.17987C13.7373 2.34444 14.0669 2.59651 14.3419 2.91985C14.617 3.24319 14.8314 3.63064 14.9714 4.05727C15.1567 4.64532 15.2546 5.26643 15.261 5.89347C15.3016 6.93602 15.31 7.24919 15.31 9.89058C15.31 12.532 15.3016 12.8435 15.261 13.886C15.2546 14.5131 15.1567 15.1342 14.9714 15.7222C14.8314 16.1489 14.617 16.5363 14.3419 16.8597C14.0669 17.183 13.7373 17.4351 13.3744 17.5996C12.8741 17.8174 12.3458 17.9326 11.8124 17.94C10.9255 17.9878 10.6591 17.9977 8.41287 17.9977C6.16664 17.9977 5.90023 17.9878 5.01337 17.94C4.47997 17.9326 3.95162 17.8174 3.45138 17.5996C3.08846 17.4351 2.75887 17.183 2.48382 16.8597C2.20876 16.5363 1.99434 16.1489 1.85434 15.7222C1.66907 15.1342 1.57113 14.5131 1.56479 13.886C1.52413 12.8435 1.51572 12.5303 1.51572 9.88976C1.51572 7.24919 1.52413 6.93602 1.56479 5.89347C1.57113 5.26643 1.66907 4.64532 1.85434 4.05727C1.99434 3.63064 2.20876 3.24319 2.48382 2.91985C2.75887 2.59651 3.08846 2.34444 3.45138 2.17987C3.95162 1.96207 4.47997 1.84694 5.01337 1.83949C5.90023 1.79169 6.16664 1.7818 8.41287 1.7818ZM8.41287 0C6.12808 0 5.84134 0.0115381 4.94397 0.0593386C4.24624 0.0759007 3.55595 0.231395 2.90244 0.519212C2.34349 0.773294 1.83587 1.16186 1.41211 1.66001C0.988357 2.15816 0.657815 2.75489 0.441676 3.41197C0.196762 4.18046 0.064487 4.99222 0.0504773 5.8127C0.00981504 6.86761 0 7.20304 0 9.88976C0 12.5765 0.00981504 12.9127 0.0504773 13.9676C0.0645661 14.7878 0.19684 15.5993 0.441676 16.3675C0.657815 17.0246 0.988357 17.6214 1.41211 18.1195C1.83587 18.6176 2.34349 19.0062 2.90244 19.2603C3.55617 19.5482 4.24671 19.7037 4.94467 19.7202C5.84204 19.768 6.12808 19.7795 8.41287 19.7795C10.6977 19.7795 10.9844 19.768 11.8818 19.7202C12.5797 19.7037 13.2703 19.5482 13.924 19.2603C14.483 19.0062 14.9906 18.6176 15.4143 18.1195C15.8381 17.6214 16.1686 17.0246 16.3848 16.3675C16.6294 15.599 16.7615 14.7873 16.7753 13.9668C16.8159 12.9119 16.8257 12.5765 16.8257 9.88976C16.8257 7.20304 16.8159 6.86679 16.7753 5.81188C16.7612 4.99167 16.6289 4.1802 16.3841 3.41197C16.1679 2.75489 15.8374 2.15816 15.4136 1.66001C14.9899 1.16186 14.4823 0.773294 13.9233 0.519212C13.2695 0.231585 12.579 0.076368 11.8811 0.0601626C10.9837 0.0107139 10.6984 0 8.41287 0Z" fill="#1BB275"/>
</svg>
