<svg width="14" height="15" viewBox="0 0 14 15" fill="none" xmlns="http://www.w3.org/2000/svg">
<path d="M2.62094 0.0471725C2.41637 0.124578 2.3362 0.179867 1.89112 0.555834C1.36587 0.998147 1.19724 1.15849 1.00373 1.39347C0.403838 2.12605 0.0748665 2.97197 0.0112838 3.94507C-0.0440054 4.80205 0.102511 5.63139 0.481242 6.63212C0.613937 6.98044 1.07007 7.86507 1.3327 8.28527C2.37766 9.95777 4.05016 11.7685 5.48215 12.7858C7.5168 14.2261 9.52933 14.533 11.2405 13.6622C11.6137 13.4714 11.8819 13.2807 12.3159 12.8936C12.9987 12.2854 13.1148 12.1389 13.1646 11.8321C13.2448 11.3289 12.9379 10.9005 11.8404 9.96606C11.0608 9.29983 10.5522 9.0372 10.0656 9.0372C9.59567 9.03997 9.3137 9.2086 8.52859 9.95777C8.31296 10.1651 8.09457 10.3503 8.0227 10.3835C7.40622 10.6876 6.5907 10.3172 5.53744 9.26113C4.75787 8.47878 4.06675 7.58586 3.72949 6.92792C3.41157 6.30315 3.34523 5.82766 3.52768 5.43787C3.60785 5.26648 3.73225 5.13378 4.01699 4.92369C4.2962 4.71635 4.81868 4.25468 4.94032 4.10817C4.99285 4.04182 5.07854 3.9036 5.12554 3.80131C5.19742 3.64374 5.21677 3.5691 5.22782 3.359C5.24441 3.0245 5.1753 2.74805 4.95967 2.30297C4.77445 1.91871 4.27132 1.11149 3.99211 0.75211C3.50833 0.127341 3.04666 -0.110402 2.62094 0.0471725Z" fill="#1BB275"/>
</svg>
