<svg width="14" height="16" viewBox="0 0 14 16" fill="none" xmlns="http://www.w3.org/2000/svg">
<path d="M2.62094 0.0505075C2.41637 0.133384 2.3362 0.192582 1.89112 0.595127C1.36587 1.06871 1.19724 1.24038 1.00373 1.49197C0.403838 2.27635 0.0748665 3.18207 0.0112838 4.22396C-0.0440054 5.14152 0.102511 6.02949 0.481242 7.10097C0.613937 7.47392 1.07007 8.42108 1.3327 8.87098C2.37766 10.6617 4.05016 12.6004 5.48215 13.6897C7.5168 15.2318 9.52933 15.5603 11.2405 14.628C11.6137 14.4237 11.8819 14.2195 12.3159 13.8051C12.9987 13.1539 13.1148 12.9971 13.1646 12.6685C13.2448 12.1298 12.9379 11.671 11.8404 10.6706C11.0608 9.95726 10.5522 9.67607 10.0656 9.67607C9.59567 9.67903 9.3137 9.85959 8.52859 10.6617C8.31296 10.8837 8.09457 11.082 8.0227 11.1175C7.40622 11.4431 6.5907 11.0465 5.53744 9.91583C4.75787 9.07818 4.06675 8.12213 3.72949 7.41768C3.41157 6.74874 3.34523 6.23964 3.52768 5.8223C3.60785 5.63878 3.73225 5.49671 4.01699 5.27176C4.2962 5.04976 4.81868 4.55546 4.94032 4.39859C4.99285 4.32755 5.07854 4.17956 5.12554 4.07004C5.19742 3.90133 5.21677 3.82141 5.22782 3.59646C5.24441 3.23831 5.1753 2.94232 4.95967 2.46578C4.77445 2.05435 4.27132 1.19007 3.99211 0.80528C3.50833 0.136344 3.04666 -0.118207 2.62094 0.0505075Z" fill="#1BB275"/>
</svg>
