<svg width="160" height="160" viewBox="0 0 160 160" fill="none" xmlns="http://www.w3.org/2000/svg">
<g filter="url(#filter0_d_1_205)">
<rect x="30" y="18" width="100" height="100" rx="10" fill="#102C5B"/>
</g>
<path d="M50.0129 36.2499C49.2878 36.5375 48.6501 37.1126 48.2751 37.8128L48 38.3129V68.0069V97.701L48.2751 98.2011C48.5876 98.7887 49.2003 99.3889 49.8129 99.7139C50.238 99.939 51.0632 99.9515 72.2554 99.989C96.4482 100.014 94.8728 100.064 95.8481 99.2638C96.0981 99.0513 96.4482 98.6012 96.6232 98.2386L96.9483 97.5885V91.6372V85.6733L96.6607 85.4108C96.2481 85.0232 95.573 85.0482 95.1854 85.4608L94.8853 85.7859L94.8603 91.3621C94.8353 94.4378 94.7978 97.0759 94.7603 97.2259C94.5978 97.926 95.8231 97.8885 72.3804 97.8885H50.7881L50.4255 97.526L50.063 97.1634V68.0194V38.888L50.363 38.5379L50.6631 38.1879L72.2804 38.1504C87.5212 38.1379 93.9851 38.1629 94.2102 38.2629C94.3977 38.3254 94.5978 38.5129 94.6853 38.663C94.7853 38.863 94.8353 41.8512 94.8603 49.2778L94.8853 59.6051L95.1854 59.9302C95.5855 60.3553 96.2857 60.3803 96.6732 59.9677L96.9483 59.6801V49.0528V38.4254L96.6232 37.7628C96.2356 37.0001 95.423 36.3375 94.6103 36.1374C94.2477 36.0374 87.2462 35.9999 72.3554 35.9999C51.2257 36.0124 50.6131 36.0124 50.0129 36.2499Z" fill="white"/>
<path d="M58.2398 42.5014C57.6146 42.7514 57.5646 43.0015 57.5646 45.6646C57.5646 48.1276 57.5646 48.1401 57.8772 48.4402L58.1772 48.7527H72.4804H86.7836L87.0336 48.4652C87.4087 48.0526 87.4587 47.79 87.2712 47.3274C87.1586 47.0399 86.9711 46.8648 86.696 46.7648C86.396 46.6648 82.5826 46.6273 72.993 46.6273H59.6901V45.5645V44.5018H73.2306H86.7836L87.0336 44.2142C87.4087 43.8017 87.4587 43.5391 87.2712 43.0765C87.1586 42.7889 86.9711 42.6139 86.696 42.5139C86.1959 42.3513 58.6649 42.3263 58.2398 42.5014Z" fill="white"/>
<path d="M107.388 49.1403C106.725 49.4654 106.238 49.9405 105.813 50.7032C105.475 51.2908 105.425 51.3283 105.025 51.2783C104.8 51.2533 104.487 51.2908 104.35 51.3658C104.212 51.4408 103.537 52.466 102.85 53.6538C101.124 56.617 101.374 56.3544 100.549 55.9543C99.8864 55.6292 99.8364 55.6292 99.4113 55.8043C99.0988 55.9293 98.9237 56.0918 98.8612 56.3419C98.6737 57.0546 98.8362 57.3546 99.6614 57.8672L100.199 58.2048L95.6855 66.0065L91.172 73.8208L90.0593 76.8089C89.4341 78.4468 88.5965 80.4347 88.1964 81.2224C87.5212 82.4977 87.4462 82.7102 87.4462 83.3979C87.4462 83.8855 87.5337 84.3606 87.7088 84.7607L87.9713 85.3733L86.8711 86.7236C86.2709 87.4613 85.7458 88.1239 85.6958 88.1739C85.6458 88.2364 85.4208 87.8238 85.1957 87.2737C84.5706 85.7109 83.7079 85.0857 82.4826 85.3233C82.02 85.4108 81.1948 86.1235 80.8698 86.6861C80.7697 86.8736 80.6947 86.3985 80.5322 84.5856C80.3071 81.9851 80.1946 81.6475 79.3444 81.0724C78.5317 80.5222 77.319 80.7098 76.6688 81.4849C76.1937 82.0476 73.4931 90.1869 73.6182 90.6745C73.7182 91.1121 74.3933 91.5372 74.8184 91.4496C74.9935 91.4121 75.2435 91.2496 75.381 91.0996C75.5186 90.937 76.1687 89.1741 76.8814 86.9737C77.569 84.8607 78.1567 83.1353 78.1942 83.1353C78.2442 83.1353 78.3442 84.073 78.4317 85.2233C78.5192 86.3985 78.6693 87.5113 78.7693 87.7613C79.4569 89.3992 81.4699 89.6242 82.4826 88.1739C82.6952 87.8739 82.9077 87.6363 82.9452 87.6363C82.9952 87.6363 83.1828 88.0364 83.3828 88.524C83.8079 89.6242 84.1705 90.0618 84.8831 90.3244C85.5333 90.5744 86.1834 90.4994 86.7711 90.0993C86.9836 89.9618 87.7463 89.0991 88.4589 88.1989L89.7467 86.5611L90.4594 86.6111C91.022 86.6486 91.3096 86.5986 91.8472 86.361C92.6724 85.9734 93.0099 85.6234 93.9851 84.098C94.4102 83.4354 95.6105 81.86 96.6482 80.5972L98.5361 78.3217L103.075 70.445C105.563 66.1066 107.626 62.5558 107.638 62.5308C107.726 62.4307 108.701 63.0309 108.876 63.2809C109.289 63.8561 109.151 64.1811 106.875 68.132C105.663 70.2325 104.65 72.1204 104.612 72.3454C104.55 72.6705 104.612 72.8205 104.938 73.1456C105.275 73.4707 105.4 73.5207 105.725 73.4582C105.938 73.4207 106.188 73.3206 106.275 73.2456C106.525 73.0331 110.951 65.3189 111.089 64.8563C111.502 63.4185 110.901 62.0432 109.489 61.1305L108.713 60.6303L110.076 58.2548C111.539 55.7418 111.689 55.2667 111.214 54.8291C110.976 54.604 110.976 54.5915 111.401 53.8163C111.939 52.8411 112.052 52.0409 111.789 51.1157C111.376 49.7279 110.201 48.8778 108.713 48.8778C108.151 48.8903 107.726 48.9653 107.388 49.1403ZM109.451 51.2533C109.851 51.6534 109.889 52.0535 109.576 52.7036C109.414 53.0162 109.226 53.3037 109.138 53.3287C109.026 53.3787 107.663 52.6911 107.338 52.4285C107.251 52.3535 107.951 51.2658 108.176 51.1408C108.538 50.9282 109.176 50.9782 109.451 51.2533ZM107.126 54.7665C108.088 55.3292 108.913 55.8043 108.938 55.8293C108.976 55.8668 107.038 59.305 106.875 59.4926C106.85 59.5301 103.412 57.5922 103.212 57.4296C103.162 57.3921 105.238 53.7538 105.313 53.7538C105.338 53.7538 106.15 54.2164 107.126 54.7665ZM104.537 60.6679C105.175 61.0179 105.7 61.368 105.7 61.4305C105.7 61.518 97.7985 75.2711 97.3359 75.9962C97.2484 76.1213 96.8358 75.9337 95.4355 75.121C94.4477 74.5584 93.6226 74.0833 93.5976 74.0583C93.5726 74.0458 98.8487 64.8313 101.787 59.7927L102.099 59.2675L102.737 59.6301C103.1 59.8427 103.912 60.3053 104.537 60.6679ZM94.7353 77.159C95.3354 77.5091 95.8606 77.8341 95.8981 77.8967C95.9356 77.9592 95.3604 78.7343 94.6228 79.6345L93.2725 81.2474L92.5848 80.8598C92.1973 80.6348 91.7346 80.3722 91.5471 80.2597C91.3471 80.1597 91.197 80.0346 91.197 79.9971C91.197 79.9096 92.5723 76.2463 92.6599 76.0963C92.6849 76.0462 92.9224 76.1213 93.1725 76.2713C93.435 76.4213 94.1227 76.8214 94.7353 77.159ZM91.272 82.5852C91.7096 82.8352 92.0722 83.0603 92.0722 83.0853C92.0722 83.2978 91.5221 84.148 91.2971 84.3106C90.6344 84.7857 89.6842 84.3106 89.6592 83.5104C89.6592 83.0603 90.1218 82.1351 90.3468 82.1351C90.4094 82.1351 90.8344 82.3351 91.272 82.5852Z" fill="white"/>
<path d="M61.1029 51.2782C60.7278 51.7033 60.6778 51.9658 60.8653 52.4409C61.0029 52.766 61.1654 52.891 61.528 53.0036C61.8656 53.1036 65.1288 53.1286 72.793 53.1036L83.5954 53.0661L83.8954 52.716C84.283 52.2534 84.283 51.7033 83.8829 51.3157L83.5829 51.0031H72.4679H61.3529L61.1029 51.2782Z" fill="white"/>
<path d="M65.7039 58.5173C65.2663 58.6923 65.0788 59.0049 65.0663 59.53C65.0663 59.8801 65.1413 60.0426 65.3913 60.2427C65.7289 60.5052 65.7789 60.5052 77.8441 60.5052H89.9593L90.2593 60.1927C90.6844 59.7801 90.6844 59.155 90.2468 58.7424L89.9218 58.4423L77.9691 58.4173C70.455 58.4048 65.8915 58.4423 65.7039 58.5173Z" fill="white"/>
<path d="M56.2268 64.8437C55.8517 64.9187 55.4391 65.4563 55.4391 65.8939C55.4391 66.0815 55.5767 66.4065 55.7392 66.5941L56.0393 66.9442H67.1042H78.1692L78.4942 66.6441C78.9443 66.219 78.9443 65.5438 78.4942 65.1187L78.1692 64.8187L67.3418 64.8062C61.378 64.7937 56.3769 64.8062 56.2268 64.8437Z" fill="white"/>
<path d="M81.8825 64.8437C81.0698 65.0562 80.7822 66.069 81.3949 66.6441L81.7199 66.9442H85.8459H89.9718L90.2718 66.5941C90.6594 66.144 90.6594 65.6189 90.2718 65.1688L89.9718 64.8187L86.0459 64.7937C83.8954 64.7937 82.02 64.8062 81.8825 64.8437Z" fill="white"/>
<path d="M56.0018 70.2824C55.3641 70.645 55.2391 71.4451 55.7517 71.9452L56.0518 72.2578H61.7905H67.5293L67.8669 71.9327C68.3045 71.4826 68.292 70.97 67.8294 70.4949L67.4668 70.1323H61.8531C57.8772 70.1448 56.1768 70.1824 56.0018 70.2824Z" fill="white"/>
<path d="M70.9426 70.2949C70.2674 70.6325 70.1799 71.5327 70.78 72.0078C71.0801 72.2453 71.3051 72.2578 75.181 72.2578C79.1194 72.2578 79.2819 72.2453 79.5445 72.0078C80.1196 71.4701 80.0071 70.645 79.3194 70.2949C78.8693 70.0698 71.3927 70.0698 70.9426 70.2949Z" fill="white"/>
<path d="M59.44 77.8217C56.0268 78.5468 53.3762 81.1099 52.4885 84.5107C52.1634 85.7609 52.1884 87.8239 52.5385 89.0742C53.4387 92.1999 55.7642 94.5129 58.8774 95.4131C59.6401 95.6256 60.2027 95.6881 61.2529 95.7006C62.9533 95.7006 63.6535 95.5381 65.2913 94.7379C66.3791 94.2253 66.7541 93.9627 67.5543 93.1626C69.1922 91.5372 70.1424 89.5368 70.2799 87.3988C70.3424 86.3486 70.3424 86.3111 70.0049 85.9735C69.2547 85.2358 68.192 85.7984 68.192 86.9237C68.1795 88.4865 67.3918 90.3244 66.1915 91.5122C64.8037 92.9 63.2284 93.5627 61.3154 93.5627C57.4021 93.5877 54.3639 90.5495 54.3889 86.6361C54.3889 84.7232 55.0516 83.1479 56.4394 81.76C58.1022 80.0972 60.5153 79.4095 62.8158 79.9597C63.5409 80.1222 63.9285 80.2972 65.5914 81.1599C66.004 81.385 66.079 81.385 66.4916 81.2099C66.9667 81.0099 67.1167 80.6848 67.0417 80.0597C66.9667 79.347 64.9537 78.2093 63.0783 77.8092C62.0531 77.5966 60.5028 77.5966 59.44 77.8217Z" fill="white"/>
<path d="M65.1913 83.5978C65.0913 83.6353 64.0911 84.548 62.9658 85.6107L60.9279 87.5486L59.6401 86.2859C58.5773 85.2356 58.2898 85.0106 57.9772 85.0106C57.4396 85.0106 56.9395 85.5357 56.9395 86.0983C56.9395 86.4734 57.102 86.6985 58.2648 87.8862C58.9899 88.6364 59.7776 89.3365 60.0277 89.4491C60.5278 89.6866 61.3404 89.7241 61.8656 89.5116C62.3532 89.3365 66.179 85.5607 66.3916 85.0481C66.6291 84.4855 66.4166 83.9103 65.8664 83.6853C65.6414 83.5853 65.4288 83.5103 65.4163 83.5228C65.3913 83.5228 65.2913 83.5603 65.1913 83.5978Z" fill="white"/>
<defs>
<filter id="filter0_d_1_205" x="0" y="0" width="160" height="160" filterUnits="userSpaceOnUse" color-interpolation-filters="sRGB">
<feFlood flood-opacity="0" result="BackgroundImageFix"/>
<feColorMatrix in="SourceAlpha" type="matrix" values="0 0 0 0 0 0 0 0 0 0 0 0 0 0 0 0 0 0 127 0" result="hardAlpha"/>
<feOffset dy="12"/>
<feGaussianBlur stdDeviation="15"/>
<feComposite in2="hardAlpha" operator="out"/>
<feColorMatrix type="matrix" values="0 0 0 0 0 0 0 0 0 0 0 0 0 0 0 0 0 0 0.1 0"/>
<feBlend mode="normal" in2="BackgroundImageFix" result="effect1_dropShadow_1_205"/>
<feBlend mode="normal" in="SourceGraphic" in2="effect1_dropShadow_1_205" result="shape"/>
</filter>
</defs>
</svg>
