<svg width="13" height="21" viewBox="0 0 13 21" fill="none" xmlns="http://www.w3.org/2000/svg">
<path d="M6.90042 0.458008C3.42964 0.458008 0 3.14818 0 7.50216C0 10.271 1.33949 11.8442 2.15131 11.8442C2.48632 11.8442 2.67899 10.7587 2.67899 10.4522C2.67899 10.0866 1.87745 9.30756 1.87745 7.78533C1.87745 4.6232 3.94758 2.38108 6.62657 2.38108C8.92995 2.38108 10.6348 3.90331 10.6348 6.69982C10.6348 8.7884 9.91441 12.7057 7.58018 12.7057C6.73806 12.7057 6.01716 11.9977 6.01716 10.9833C6.01716 9.49634 6.91016 8.05718 6.91016 6.523C6.91016 3.91967 3.7338 4.39163 3.7338 7.53802C3.7338 8.19877 3.8047 8.92999 4.05853 9.53221C3.59146 11.8687 2.63785 15.3493 2.63785 17.7563C2.63785 18.4994 2.72932 19.2313 2.78993 19.9745C2.90467 20.1242 2.8473 20.1085 3.0232 20.0336C4.728 17.3195 4.66739 16.7891 5.43861 13.2374C5.8548 14.158 6.93018 14.6533 7.78259 14.6533C11.3746 14.6533 12.9885 10.5825 12.9885 6.91315C12.9885 3.00785 10.086 0.459266 6.89988 0.459266L6.90042 0.458008Z" fill="#1BB275"/>
</svg>
