<svg width="41" height="41" viewBox="0 0 41 41" fill="none" xmlns="http://www.w3.org/2000/svg">
<circle cx="20.0537" cy="20.0537" r="19.5537" stroke="white"/>
<path d="M19.87 10.4629C16.0155 10.4629 12.2066 13.0044 12.2066 17.1177C12.2066 19.7335 13.6942 21.2197 14.5958 21.2197C14.9678 21.2197 15.1818 20.1942 15.1818 19.9047C15.1818 19.5593 14.2916 18.8233 14.2916 17.3852C14.2916 14.3979 16.5907 12.2797 19.5659 12.2797C22.124 12.2797 24.0173 13.7178 24.0173 16.3597C24.0173 18.3328 23.2173 22.0336 20.6249 22.0336C19.6897 22.0336 18.8891 21.3648 18.8891 20.4065C18.8891 19.0017 19.8808 17.642 19.8808 16.1927C19.8808 13.7332 16.3532 14.1791 16.3532 17.1516C16.3532 17.7758 16.432 18.4666 16.7139 19.0355C16.1952 21.2429 15.1361 24.5311 15.1361 26.805C15.1361 27.5071 15.2377 28.1985 15.305 28.9006C15.4324 29.0421 15.3687 29.0273 15.5641 28.9565C17.4574 26.3925 17.3901 25.8913 18.2466 22.5359C18.7088 23.4057 19.9031 23.8736 20.8497 23.8736C24.8389 23.8736 26.6313 20.0278 26.6313 16.5612C26.6313 12.8718 23.4078 10.4641 19.8694 10.4641L19.87 10.4629Z" fill="white"/>
</svg>
