<svg width="160" height="160" viewBox="0 0 160 160" fill="none" xmlns="http://www.w3.org/2000/svg">
<g filter="url(#filter0_d_1_240)">
<rect x="30" y="18" width="100" height="100" rx="10" fill="#102C5B"/>
</g>
<path d="M56.5879 36.1808C56.0504 36.3434 55.3128 36.8309 54.9003 37.3059C54.5253 37.7309 54.0628 38.781 54.0628 39.2435C54.0628 39.481 54.0128 39.7435 53.9628 39.8185C53.9128 39.906 53.2752 39.981 52.3627 40.0185C51.1001 40.0685 50.7376 40.131 50.1626 40.3935C49.3251 40.7811 48.625 41.4686 48.2625 42.2311L48 42.8061V67.9948V93.1834L48.2625 93.7584C48.625 94.521 49.3251 95.2085 50.1626 95.596C50.7376 95.8585 51.1001 95.921 52.3627 95.971C53.2752 96.0085 53.9128 96.0835 53.9628 96.171C54.0128 96.246 54.0628 96.5085 54.0628 96.7461C54.0753 97.7586 55.0503 99.0962 56.1754 99.6462L56.7504 99.9337L79.0014 99.9712C103.615 99.9962 101.965 100.059 103.102 99.1837C103.502 98.8712 103.79 98.4961 104.09 97.9086L104.503 97.0586V91.0833V85.0955L104.153 84.7955C103.728 84.433 103.315 84.408 102.927 84.733L102.627 84.9705L102.565 90.8958L102.502 96.8086L102.202 97.2336C101.615 98.0461 103.215 97.9961 79.2389 97.9961C59.213 97.9961 57.3754 97.9836 56.9754 97.7961C56.0504 97.3461 56.1379 99.4587 56.0629 74.8576C56.0004 53.7691 55.9879 52.7566 55.7753 52.5191C55.2503 51.9316 54.2878 52.1816 54.0753 52.9566C53.9753 53.2816 53.9378 59.7569 53.9378 73.645V93.8709H52.5377C50.9126 93.8709 50.4251 93.6834 50.1126 92.9334C49.8501 92.2834 49.8501 43.7062 50.1126 43.0562C50.4251 42.3061 50.9126 42.1186 52.5252 42.1186H53.9253L53.9628 45.8188L54.0003 49.5189L54.3503 49.819C54.9503 50.3315 55.6628 50.1565 55.9379 49.4439C56.0129 49.2314 56.0629 47.2688 56.0629 44.1437C56.0629 39.506 56.0754 39.156 56.3004 38.7935C56.8254 37.9309 55.0253 37.9934 79.2389 37.9934C103.215 37.9934 101.615 37.9434 102.202 38.756L102.502 39.181L102.54 54.9567L102.565 70.7324L98.4273 76.2701C96.1522 79.3203 94.2396 81.8579 94.1896 81.9204C94.1271 81.9704 93.327 81.0079 92.3895 79.7703C91.4645 78.5327 90.5144 77.3702 90.2894 77.2077C89.4144 76.5452 88.1768 76.2951 87.1143 76.5702C84.8267 77.1577 83.6641 79.6953 84.7391 81.7579C85.1767 82.6079 91.3644 90.7958 91.802 91.1083C92.002 91.2458 92.4395 91.4833 92.7645 91.6333C93.9146 92.1209 95.5771 91.8333 96.5522 90.9583C97.0147 90.5333 111.453 71.2574 111.64 70.7949C112.315 69.1698 111.678 67.1322 110.19 66.2197C108.503 65.1696 106.465 65.6072 105.165 67.2947L104.628 67.9948L104.565 53.4566L104.503 38.931L104.09 38.0809C103.79 37.4934 103.502 37.1184 103.102 36.8059C101.965 35.9308 103.615 35.9933 79.2014 36.0058C61.1506 36.0058 57.0254 36.0433 56.5879 36.1808ZM109.19 67.9823C109.365 68.0948 109.603 68.3948 109.728 68.6323C110.215 69.5573 110.44 69.2073 102.64 79.5953C98.6898 84.883 95.3021 89.3207 95.1396 89.4832C94.7271 89.8708 93.8646 89.9708 93.327 89.6957C93.052 89.5457 91.9395 88.1707 89.7394 85.2205C86.6017 81.0454 86.3142 80.6078 86.3142 80.0953C86.3142 79.6578 86.7142 78.9703 87.1143 78.7328C87.6643 78.3952 88.5893 78.4202 89.0018 78.7703C89.1768 78.9328 90.2394 80.2703 91.3519 81.7454C93.527 84.633 93.8271 84.908 94.4521 84.608C94.6896 84.4955 96.8022 81.7579 100.702 76.5577C103.94 72.22 106.74 68.5198 106.928 68.3198C107.578 67.6073 108.478 67.4697 109.19 67.9823Z" fill="white"/>
<path d="M64.0007 48.2689C63.3632 48.6314 63.2507 49.3189 63.7507 49.8064L64.0507 50.119H79.2514H94.4521L94.7521 49.8064C94.9521 49.6189 95.0646 49.3564 95.0646 49.1189C95.0646 48.8814 94.9521 48.6189 94.7521 48.4314L94.4521 48.1189H79.3514C68.2259 48.1314 64.1882 48.1689 64.0007 48.2689Z" fill="white"/>
<path d="M71.3385 53.6941C71.176 53.8066 71.001 54.0316 70.9385 54.1941C70.801 54.5567 71.001 55.2067 71.3135 55.3692C71.4635 55.4442 74.4887 55.4942 79.3139 55.4942H87.0767L87.3768 55.1817C87.8643 54.7067 87.7143 53.9066 87.1017 53.6316C86.8892 53.5316 84.5141 53.4941 79.2139 53.4941C72.4511 53.4941 71.5886 53.5191 71.3385 53.6941Z" fill="white"/>
<path d="M63.7507 61.932C63.2507 62.432 63.3757 63.132 64.0257 63.4696C64.2257 63.5821 67.1759 63.6196 75.3012 63.6196H86.3017L86.6267 63.3321C87.0643 62.9695 87.0893 62.357 86.6892 61.932L86.4017 61.6195H75.2262H64.0507L63.7507 61.932Z" fill="white"/>
<path d="M92.1645 61.7945C91.8395 62.032 91.677 62.5695 91.8145 62.9195C92.0145 63.4571 92.402 63.6196 93.4771 63.6196C94.3396 63.6196 94.4896 63.5821 94.7521 63.3071C94.9521 63.1195 95.0646 62.857 95.0646 62.6195C95.0646 62.382 94.9521 62.1195 94.7521 61.932C94.4771 61.6445 94.3521 61.6195 93.4146 61.6195C92.7645 61.632 92.302 61.682 92.1645 61.7945Z" fill="white"/>
<path d="M63.7632 67.3197C63.5757 67.5197 63.4382 67.7948 63.4382 67.9948C63.4382 68.1948 63.5757 68.4698 63.7632 68.6698L64.1007 68.9948H75.1887C86.2267 68.9948 86.2767 68.9948 86.6142 68.7323C87.0768 68.3698 87.0768 67.6198 86.6142 67.2572C86.2767 66.9947 86.2267 66.9947 75.1887 66.9947H64.1007L63.7632 67.3197Z" fill="white"/>
<path d="M92.1145 67.2822C91.8645 67.4947 91.7769 67.6948 91.7769 67.9948C91.7769 68.2948 91.8645 68.4948 92.1145 68.7073C92.4145 68.9573 92.5895 68.9948 93.452 68.9948C94.3521 68.9948 94.4771 68.9573 94.7521 68.6823C94.9521 68.4948 95.0646 68.2323 95.0646 67.9948C95.0646 67.7573 94.9521 67.4947 94.7521 67.3072C94.4771 67.0322 94.3521 66.9947 93.452 66.9947C92.5895 66.9947 92.4145 67.0322 92.1145 67.2822Z" fill="white"/>
<path d="M64.2257 81.8329C63.8632 81.9079 63.4382 82.4454 63.4382 82.8204C63.4382 82.9704 63.5757 83.2705 63.7382 83.458L64.0382 83.808H71.8511C80.264 83.808 79.9389 83.833 80.2015 83.158C80.264 82.9955 80.2515 82.7204 80.164 82.4829C79.9014 81.7329 79.9639 81.7454 71.8511 81.7579C67.8134 81.7704 64.3757 81.8079 64.2257 81.8329Z" fill="white"/>
<path d="M63.7507 87.5582C63.3507 87.9457 63.3507 88.3832 63.7382 88.8333L64.0382 89.1833L66.8884 89.2208C68.4634 89.2458 69.8635 89.2333 70.026 89.1833C70.776 88.9958 71.0635 88.0332 70.526 87.5207C70.2385 87.2582 70.151 87.2457 67.1384 87.2457H64.0507L63.7507 87.5582Z" fill="white"/>
<defs>
<filter id="filter0_d_1_240" x="0" y="0" width="160" height="160" filterUnits="userSpaceOnUse" color-interpolation-filters="sRGB">
<feFlood flood-opacity="0" result="BackgroundImageFix"/>
<feColorMatrix in="SourceAlpha" type="matrix" values="0 0 0 0 0 0 0 0 0 0 0 0 0 0 0 0 0 0 127 0" result="hardAlpha"/>
<feOffset dy="12"/>
<feGaussianBlur stdDeviation="15"/>
<feComposite in2="hardAlpha" operator="out"/>
<feColorMatrix type="matrix" values="0 0 0 0 0 0 0 0 0 0 0 0 0 0 0 0 0 0 0.1 0"/>
<feBlend mode="normal" in2="BackgroundImageFix" result="effect1_dropShadow_1_240"/>
<feBlend mode="normal" in="SourceGraphic" in2="effect1_dropShadow_1_240" result="shape"/>
</filter>
</defs>
</svg>
