<svg width="20" height="17" viewBox="0 0 20 17" fill="none" xmlns="http://www.w3.org/2000/svg">
<path d="M18.3329 0.68772L1.17589 2.1281C1.00313 2.14261 0.838026 2.20583 0.699757 2.31042C0.561488 2.41501 0.455724 2.55667 0.394747 2.71897C0.33377 2.88126 0.320081 3.05752 0.355271 3.22728C0.390461 3.39704 0.473086 3.55334 0.59355 3.67802L3.7772 6.97093L11.267 5.72489L6.44298 11.5882L7.7029 15.9918C7.75003 16.1589 7.84378 16.3092 7.97319 16.4251C8.1026 16.5409 8.26232 16.6175 8.43366 16.6459C8.60501 16.6743 8.7809 16.6533 8.94075 16.5854C9.10061 16.5175 9.23782 16.4055 9.33634 16.2624L19.1623 2.12417C19.2616 1.98136 19.3182 1.81323 19.3256 1.63943C19.3329 1.46562 19.2906 1.29332 19.2036 1.14267C19.1166 0.992017 18.9886 0.869235 18.8344 0.788671C18.6802 0.708109 18.5063 0.673093 18.3329 0.68772Z" fill="white"/>
</svg>
