<svg width="73" height="73" viewBox="0 0 73 73" fill="none" xmlns="http://www.w3.org/2000/svg">
<g clip-path="url(#clip0_1_130)">
<path d="M0 30.084V60.168H8.55469H17.1094V66.584V73H40.6348H64.1602V49.4746V25.9492H68.5801H73V23.8105V21.6719H68.5801H64.1602V10.8359V0H32.0801H0V30.084ZM43.2154 9.21054C47.2789 9.90918 50.715 12.0621 52.925 15.3129C54.0514 16.9525 55.3203 20.1748 55.3203 21.3725C55.3203 21.6719 55.3631 21.6719 59.7402 21.6719H64.1602V23.8105V25.9492H59.7402C55.3631 25.9492 55.3203 25.9492 55.3203 26.2486C55.3203 26.9045 54.693 28.9434 54.1227 30.1695C53.2672 31.966 52.483 33.0924 51.1285 34.4326C49.1609 36.3859 46.7941 37.7119 44.0709 38.3963C42.4598 38.7955 38.9523 38.824 37.4268 38.4533C34.6037 37.7547 32.0088 36.3146 30.027 34.3186C28.6439 32.9213 27.6602 31.4955 26.9188 29.7561C25.992 27.6316 25.7496 26.3627 25.7496 23.8105C25.7496 21.2584 25.992 19.9895 26.9188 17.865C29.6135 11.5916 36.3146 8.02715 43.2154 9.21054ZM13.6447 10.8645L14.9707 12.1904L16.3109 10.8502C17.5371 9.62402 17.6797 9.52422 17.9221 9.70957C18.4354 10.123 20.6738 12.39 20.6738 12.4898C20.6738 12.5611 20.075 13.2027 19.3621 13.9299L18.0361 15.2559L19.3906 16.6104L20.7451 17.9648L19.2053 19.4904L17.6797 21.0303L16.3252 19.6758L14.9707 18.3213L13.6162 19.6758L12.2617 21.0303L10.7361 19.4904L9.19629 17.9648L10.5508 16.6104L11.9053 15.2559L10.5793 13.9299C9.86641 13.2027 9.26758 12.5611 9.26758 12.4898C9.26758 12.3473 12.0906 9.55273 12.2332 9.55273C12.2902 9.55273 12.9176 10.1516 13.6447 10.8645ZM21.401 25.935C22.1852 26.7191 22.8125 27.4035 22.8125 27.4748C22.8125 27.5318 21.0445 29.3568 18.8916 31.5098L14.9707 35.4307L12.1191 32.5791C10.5508 31.0107 9.26758 29.6848 9.26758 29.6277C9.26758 29.4709 12.0764 26.6621 12.2189 26.6621C12.276 26.6621 12.9176 27.2609 13.6447 27.9738L14.9707 29.2998L17.366 26.9045C18.6777 25.5928 19.8041 24.5234 19.8754 24.5234C19.9467 24.5234 20.6311 25.165 21.401 25.935ZM13.6447 40.8059L14.9707 42.1318L16.2967 40.8059C17.0238 40.093 17.6797 39.4941 17.7652 39.4941C17.9363 39.4941 20.6738 42.2459 20.6738 42.4312C20.6738 42.5025 20.075 43.1441 19.3621 43.8713L18.0361 45.1973L19.3906 46.5518L20.7451 47.9062L19.2053 49.4318L17.6797 50.9717L16.3252 49.6172L14.9707 48.2627L13.6162 49.6172L12.2617 50.9717L10.7361 49.4318L9.19629 47.9062L10.5508 46.5518L11.9053 45.1973L10.5793 43.8713C9.86641 43.1441 9.26758 42.5025 9.26758 42.4312C9.26758 42.2459 12.0051 39.4941 12.1762 39.4941C12.2617 39.4941 12.9176 40.093 13.6447 40.8059ZM55.6055 45.1973V47.3359H40.6348H25.6641V45.1973V43.0586H40.6348H55.6055V45.1973ZM55.6055 53.752V55.8906H40.6348H25.6641V53.752V51.6133H40.6348H55.6055V53.752ZM55.6055 62.3066V64.4453H40.6348H25.6641V62.3066V60.168H40.6348H55.6055V62.3066Z" fill="white"/>
<path d="M38.4961 13.3453C37.0988 13.6447 36.001 14.0867 34.8746 14.8281C30.5117 17.7082 28.8293 22.9979 30.6971 27.9738C31.8377 30.968 34.4469 33.1637 37.9258 34.0191C39.4229 34.3898 42.0035 34.3471 43.5576 33.9479C45.5537 33.4203 46.951 32.6361 48.3483 31.2389C50.2588 29.3283 51.1143 27.3607 51.2854 24.4522C51.6988 17.4658 45.2686 11.8768 38.4961 13.3453Z" fill="#1BB275"/>
<path d="M1.58261 64.5023C1.61112 64.5309 4.16327 66.2275 7.24296 68.2807L12.832 72.002V68.2236V64.4453H7.17167C4.06347 64.4453 1.55409 64.4738 1.58261 64.5023Z" fill="#1BB275"/>
</g>
<defs>
<clipPath id="clip0_1_130">
<rect width="73" height="73" fill="white"/>
</clipPath>
</defs>
</svg>
