<svg width="232" height="69" viewBox="0 0 232 69" fill="none" xmlns="http://www.w3.org/2000/svg">
<path d="M231.496 3.10846C231.556 2.28221 230.935 1.56383 230.108 1.50393L216.644 0.527751C215.818 0.467848 215.099 1.0891 215.039 1.91536C214.979 2.74162 215.601 3.45999 216.427 3.5199L228.395 4.38761L227.528 16.3562C227.468 17.1825 228.089 17.9008 228.915 17.9607C229.742 18.0206 230.46 17.3994 230.52 16.5731L231.496 3.10846ZM0.607301 62.1898C2.18074 62.6166 3.842 63.0327 5.58657 63.4343L6.2596 60.5108C4.55052 60.1173 2.92681 59.7106 1.3927 59.2944L0.607301 62.1898ZM15.6774 65.4225C18.8864 65.9585 22.2863 66.4423 25.8597 66.8591L26.2073 63.8793C22.6815 63.468 19.3306 62.9911 16.1717 62.4635L15.6774 65.4225ZM36.1057 67.825C39.4026 68.0646 42.814 68.246 46.3293 68.3601L46.4267 65.3617C42.9515 65.2489 39.5801 65.0696 36.3231 64.8329L36.1057 67.825ZM56.5988 68.4953C59.9407 68.4756 63.3592 68.394 66.8464 68.2437L66.7173 65.2465C63.2676 65.3951 59.8863 65.4759 56.5811 65.4953L56.5988 68.4953ZM77.1019 67.6127C80.4485 67.3452 83.8477 67.0131 87.2933 66.6112L86.9456 63.6314C83.5367 64.029 80.1737 64.3576 76.8628 64.6222L77.1019 67.6127ZM97.4626 65.2366C100.802 64.723 104.178 64.1422 107.585 63.4895L107.02 60.5431C103.65 61.1887 100.311 61.7634 97.0066 62.2715L97.4626 65.2366ZM117.609 61.3769C120.903 60.6188 124.221 59.7915 127.557 58.8913L126.776 55.9949C123.476 56.8852 120.194 57.7034 116.936 58.4533L117.609 61.3769ZM137.413 56.032C140.649 55.0263 143.898 53.9496 147.157 52.7987L146.158 49.9699C142.936 51.108 139.723 52.1726 136.523 53.1671L137.413 56.032ZM156.77 49.193C159.918 47.9425 163.07 46.6201 166.223 45.2227L165.008 42.4799C161.89 43.8614 158.774 45.1687 155.663 46.405L156.77 49.193ZM175.516 40.8841C178.558 39.3903 181.598 37.8237 184.633 36.1816L183.205 33.5431C180.206 35.1662 177.201 36.7147 174.194 38.1913L175.516 40.8841ZM193.558 31.121C196.473 29.3909 199.379 27.5879 202.275 25.7097L200.643 23.1928C197.78 25.0492 194.907 26.8312 192.027 28.5412L193.558 31.121ZM210.771 19.9567C213.539 18.0016 216.293 15.9743 219.033 13.8726L217.206 11.4924C214.499 13.57 211.776 15.574 209.04 17.5064L210.771 19.9567ZM227.048 7.46925C228.364 6.37587 229.675 5.26439 230.981 4.13458L229.019 1.86542C227.727 2.98247 226.431 4.08134 225.131 5.1623L227.048 7.46925Z" fill="#102C5B" fill-opacity="0.3"/>
</svg>
