<svg width="233" height="74" viewBox="0 0 233 74" fill="none" xmlns="http://www.w3.org/2000/svg">
<path d="M231.693 15.1442C232.427 14.7617 232.713 13.8559 232.33 13.1211L226.097 1.14658C225.714 0.411767 224.808 0.126198 224.073 0.508744C223.339 0.891289 223.053 1.79709 223.436 2.5319L228.977 13.1759L218.333 18.7172C217.598 19.0997 217.312 20.0055 217.695 20.7403C218.078 21.4751 218.983 21.7607 219.718 21.3782L231.693 15.1442ZM3.06715 73.0541C4.20812 71.8991 5.42257 70.7123 6.70862 69.4989L4.6498 67.3168C3.33937 68.5533 2.09968 69.7646 0.932854 70.9459L3.06715 73.0541ZM14.356 62.702C16.8536 60.6026 19.5294 58.4583 22.375 56.291L20.5573 53.9044C17.6742 56.1002 14.9608 58.2746 12.4256 60.4056L14.356 62.702ZM30.6464 50.2726C33.3754 48.3745 36.2255 46.4745 39.1911 44.5866L37.5801 42.0559C34.5798 43.9658 31.6957 45.8884 28.9334 47.8097L30.6464 50.2726ZM47.9577 39.2474C50.8571 37.559 53.8478 35.8919 56.9257 34.257L55.5184 31.6076C52.4054 33.2611 49.3806 34.9472 46.448 36.6549L47.9577 39.2474ZM66.0768 29.6228C69.1199 28.1557 72.236 26.7261 75.4217 25.3427L74.2268 22.5909C71.0041 23.9904 67.852 25.4365 64.774 26.9204L66.0768 29.6228ZM84.9001 21.4498C88.0542 20.2279 91.268 19.0556 94.5385 17.9405L93.5703 15.101C90.2602 16.2297 87.0079 17.416 83.8164 18.6524L84.9001 21.4498ZM104.322 14.8315C107.572 13.8735 110.873 12.9752 114.22 12.1435L113.497 9.23207C110.107 10.0744 106.765 10.9839 103.473 11.9539L104.322 14.8315ZM124.216 9.89196C127.539 9.22054 130.903 8.6175 134.307 8.08891L133.846 5.12445C130.397 5.66013 126.988 6.27118 123.622 6.95139L124.216 9.89196ZM144.472 6.74979C147.844 6.38512 151.251 6.0961 154.69 5.88824L154.509 2.89371C151.022 3.10447 147.568 3.39751 144.149 3.76717L144.472 6.74979ZM164.936 5.51571C168.321 5.47441 171.734 5.51413 175.174 5.6399L175.284 2.6419C171.795 2.51433 168.332 2.47404 164.899 2.51593L164.936 5.51571ZM185.396 6.26526C188.767 6.55492 192.16 6.92949 195.575 7.3935L195.979 4.42082C192.515 3.9501 189.072 3.57012 185.652 3.27628L185.396 6.26526ZM205.688 9.02242C209.011 9.64195 212.352 10.3484 215.709 11.1459L216.402 8.22708C212.997 7.41827 209.608 6.70168 206.237 6.07323L205.688 9.02242ZM225.617 13.7539C227.257 14.2283 228.902 14.7249 230.549 15.2443L231.451 12.3831C229.781 11.8565 228.114 11.353 226.45 10.872L225.617 13.7539Z" fill="#102C5B" fill-opacity="0.3"/>
</svg>
